HIERARCHY
ROOT Hips
{
	OFFSET	0.00	0.00	0.00
	CHANNELS 6 Xposition Yposition Zposition Zrotation Xrotation Yrotation
	JOINT LeftUpLeg
	{
		OFFSET	 0.126116	-0.065224	 0.014019
		CHANNELS 3 Zrotation Xrotation Yrotation
		JOINT LeftLeg
		{
			OFFSET	 0.000000	 0.569914	 0.000000
			CHANNELS 3 Zrotation Xrotation Yrotation
			JOINT LeftFoot
			{
				OFFSET	 0.000000	 0.544423	 0.000000
				CHANNELS 3 Zrotation Xrotation Yrotation
				JOINT LeftToeBase
				{
					OFFSET	 0.000000	 0.207117	 0.000000
					CHANNELS 3 Zrotation Xrotation Yrotation
					End Site
					{
						OFFSET	 0.000000	 0.207117	 0.000000
					}
				}
			}
		}
	}
	JOINT RightUpLeg
	{
		OFFSET	-0.124023	-0.065224	 0.008373
		CHANNELS 3 Zrotation Xrotation Yrotation
		JOINT RightLeg
		{
			OFFSET	 0.000000	 0.570047	 0.000000
			CHANNELS 3 Zrotation Xrotation Yrotation
			JOINT RightFoot
			{
				OFFSET	 0.000000	 0.544354	 0.000000
				CHANNELS 3 Zrotation Xrotation Yrotation
				JOINT RightToeBase
				{
					OFFSET	 0.000000	 0.207540	 0.000000
					CHANNELS 3 Zrotation Xrotation Yrotation
					End Site
					{
						OFFSET	 0.000000	 0.207540	 0.000000
					}
				}
			}
		}
	}
	JOINT Spine
	{
		OFFSET	 0.000184	 0.117403	 0.007763
		CHANNELS 3 Zrotation Xrotation Yrotation
		JOINT Spine1
		{
			OFFSET	 0.000000	 0.137269	 0.000000
			CHANNELS 3 Zrotation Xrotation Yrotation
			JOINT Spine2
			{
				OFFSET	 0.000000	 0.156879	 0.000000
				CHANNELS 3 Zrotation Xrotation Yrotation
				JOINT LeftShoulder
				{
					OFFSET	 0.080501	 0.160143	 0.002496
					CHANNELS 3 Zrotation Xrotation Yrotation
					JOINT LeftArm
					{
						OFFSET	 0.000000	 0.164363	 0.000000
						CHANNELS 3 Zrotation Xrotation Yrotation
						JOINT LeftForeArm
						{
							OFFSET	 0.000000	 0.364576	 0.000000
							CHANNELS 3 Zrotation Xrotation Yrotation
							JOINT LeftHand
							{
								OFFSET	 0.000000	 0.360812	 0.000000
								CHANNELS 3 Zrotation Xrotation Yrotation
								JOINT LeftHandIndex1
								{
									OFFSET	 0.000000	 0.086006	 0.000000
									CHANNELS 3 Zrotation Xrotation Yrotation
									JOINT LeftHandIndex2
									{
										OFFSET	 0.000000	 0.047237	 0.000000
										CHANNELS 3 Zrotation Xrotation Yrotation
										JOINT LeftHandIndex3
										{
											OFFSET	-0.004284	 0.038165	 0.000551
											CHANNELS 3 Zrotation Xrotation Yrotation
											End Site
											{
												OFFSET	-0.004284	 0.038165	 0.000551
											}
										}
									}
								}
							}
						}
					}
				}
				JOINT Neck
				{
					OFFSET	 0.000000	 0.176489	 0.000000
					CHANNELS 3 Zrotation Xrotation Yrotation
					JOINT Head
					{
						OFFSET	 0.000000	 0.077941	 0.001747
						CHANNELS 3 Zrotation Xrotation Yrotation
						End Site
						{
							OFFSET	 0.000000	 0.077941	 0.001747
						}
					}
				}
				JOINT RightShoulder
				{
					OFFSET	-0.080363	 0.159706	-0.000306
					CHANNELS 3 Zrotation Xrotation Yrotation
					JOINT RightArm
					{
						OFFSET	 0.000000	 0.164196	 0.000000
						CHANNELS 3 Zrotation Xrotation Yrotation
						JOINT RightForeArm
						{
							OFFSET	 0.000000	 0.365611	 0.000000
							CHANNELS 3 Zrotation Xrotation Yrotation
							JOINT RightHand
							{
								OFFSET	 0.000000	 0.360648	 0.000000
								CHANNELS 3 Zrotation Xrotation Yrotation
								JOINT RightHandIndex1
								{
									OFFSET	 0.000000	 0.069977	 0.000000
									CHANNELS 3 Zrotation Xrotation Yrotation
									JOINT RightHandIndex2
									{
										OFFSET	 0.000000	 0.052305	 0.000000
										CHANNELS 3 Zrotation Xrotation Yrotation
										JOINT RightHandIndex3
										{
											OFFSET	 0.009002	 0.042196	 0.000782
											CHANNELS 3 Zrotation Xrotation Yrotation
											End Site
											{
												OFFSET	 0.009002	 0.042196	 0.000782
											}
										}
									}
								}
							}
						}
					}
				}
			}
		}
	}
}
MOTION
Frames:    12
Frame Time: 0.03333334
-0.010575	 1.233679	 0.016845	 3.087500	 0.401275	 171.901800	-158.539100	 13.404890	-29.361830	 6.066149	-21.650050	 3.172856	-12.223860	 63.503820	 4.676826	 1.161765	 26.685720	-2.659555	 174.406300	 10.042730	 20.446100	-2.400041	-28.965550	 7.753616	 12.328820	 76.385460	-8.883245	-1.288743	 28.369200	 2.710412	 2.211522	 5.960838	-8.522315	 6.880107	 6.354707	-4.407399	-5.684575	-5.756567	 14.877080	-113.083700	 6.499594	 92.946760	 20.048960	 45.846720	 4.432262	 7.352369	-0.369590	-0.455554	 11.397560	-1.093156	-21.306830	 0.647969	 8.383021	-0.355210	-5.948519	 13.638340	 1.524467	 4.990349	-3.417182	-0.332401	 3.182658	-6.828027	 0.889276	-1.243053	-6.061710	 7.276476	 123.384300	 10.385760	-96.375630	-7.205716	 43.174590	-2.321262	-5.226037	-0.197864	 0.445224	-7.682546	 2.357721	-54.150200	-2.339125	 4.943506	 0.895012	 12.549190	 23.051770	-5.196481	-8.501757	 13.227160	-0.533387
-0.012309	 1.234737	 0.027812	 2.995229	 0.206392	 171.091900	-157.931300	 13.502360	-32.484520	 6.181558	-22.021350	 2.875824	-11.971900	 63.287320	 5.118665	 1.161032	 26.675800	-2.659264	 173.911700	 10.751760	 22.301370	-2.378432	-28.843510	 7.422997	 9.187154	 75.661670	-6.271074	-1.288042	 28.359970	 2.710115	 2.682116	 5.511444	-10.250160	 6.444518	 7.187148	-4.299865	-5.216202	-7.177411	 14.771410	-112.764200	 6.544627	 92.980240	 20.284040	 46.238560	 4.721255	 5.866718	-0.265086	-1.596579	 14.035280	-2.248982	-22.213380	 0.895933	 7.612873	-0.351476	-5.945395	 13.811280	 1.543013	 5.002845	-3.142310	-0.325808	 3.173594	-6.834780	 0.941493	-1.232916	-6.370014	 7.605724	 123.170000	 10.420600	-96.353140	-6.009673	 43.114200	-2.941978	-5.772068	-0.197940	 1.575434	-10.161030	 2.894233	-50.939350	-2.428848	 5.224495	 0.891721	 12.604760	 23.793190	-5.376750	-8.506831	 13.834020	-0.571723
-0.014735	 1.235886	 0.039128	 2.843824	-0.090483	 169.865500	-157.286900	 13.445920	-36.067610	 6.252293	-22.248070	 2.391673	-11.987520	 63.092140	 5.916339	 1.159932	 26.660910	-2.658827	 173.449600	 11.637870	 23.931990	-2.348279	-28.671850	 6.925399	 5.347981	 74.804470	-3.062855	-1.286990	 28.346130	 2.709670	 3.322936	 4.942081	-12.880790	 6.033005	 8.056229	-4.193572	-4.671665	-8.699721	 14.540460	-112.284500	 6.612573	 93.030030	 19.032790	 46.951240	 6.301283	 6.692001	-0.265317	-3.290661	 15.906010	-3.560989	-23.636070	 1.267898	 6.455551	-0.339569	-5.940807	 14.070930	 1.570866	 5.021540	-2.729596	-0.316024	 3.159998	-6.844933	 1.019885	-1.220329	-6.744533	 8.078640	 122.848200	 10.472760	-96.319150	-4.847584	 42.972790	-3.412048	-6.593400	-0.197789	 3.270474	-12.984670	 3.508568	-46.266560	-2.563614	 5.646407	 0.887606	 12.693700	 24.906930	-5.651110	-8.513690	 14.745620	-0.629400
-0.018604	 1.237442	 0.052152	 2.601564	-0.549640	 167.993300	-156.571300	 13.151930	-40.608250	 6.243448	-22.219710	 1.614545	-12.302800	 62.880930	 7.212462	 1.158267	 26.638370	-2.658167	 173.029500	 12.815980	 25.469450	-2.295499	-28.311250	 6.175147	 0.376129	 73.576700	 1.035209	-1.285397	 28.325170	 2.708997	 4.213381	 4.113146	-16.963470	 5.780172	 9.177568	-4.206216	-4.035878	-10.584030	 14.100940	-111.558000	 6.716239	 93.104340	 17.589610	 48.190630	 8.387824	 7.943739	-0.265970	-5.847466	 18.255180	-5.346799	-25.978380	 1.830769	 4.701627	-0.307195	-5.934100	 14.464040	 1.613054	 5.049702	-2.104708	-0.301472	 3.139441	-6.860340	 1.138560	-1.197656	-7.241707	 8.771169	 122.360900	 10.551360	-96.267070	-3.747601	 42.608820	-3.643646	-7.835953	-0.197802	 5.828753	-16.494560	 4.311841	-39.474450	-2.767805	 6.285244	 0.883271	 12.841460	 26.594000	-6.075535	-8.522317	 16.126590	-0.717045
-0.024254	 1.239536	 0.065672	 2.263652	-1.156852	 165.521800	-155.906500	 12.579790	-45.826230	 6.124040	-21.836500	 0.557112	-12.986450	 62.689770	 8.993538	 1.156091	 26.608890	-2.657305	 172.778200	 14.167030	 26.814530	-2.269345	-27.593390	 5.070336	-5.145586	 71.883060	 5.434103	-1.283314	 28.297750	 2.708117	 5.260532	 3.004092	-22.334100	 5.823884	 10.606090	-4.436810	-3.367449	-12.760410	 13.399570	-110.607800	 6.853226	 93.199540	 16.117040	 49.884030	 10.837960	 9.575184	-0.266882	-9.166946	 20.888730	-7.505673	-29.183850	 2.567622	 2.405964	-0.238841	-5.925762	 14.978190	 1.668275	 5.086284	-1.287349	-0.282908	 3.112603	-6.880552	 1.293764	-1.157491	-7.834106	 9.646307	 121.723300	 10.653500	-96.197920	-3.043383	 41.904940	-3.414850	-9.450619	-0.197692	 9.150286	-20.391240	 5.285548	-30.855170	-3.035223	 7.120867	 0.881054	 13.059930	 28.800880	-6.648676	-8.530350	 17.933790	-0.832394
-0.031741	 1.242154	 0.078322	 1.829664	-1.854214	 162.619800	-155.383800	 11.799210	-51.366520	 5.930140	-21.209780	-0.693287	-14.120860	 62.601490	 11.207860	 1.153558	 26.574570	-2.656303	 172.752300	 15.513920	 27.652420	-2.157866	-26.426400	 3.911323	-10.444830	 69.716320	 9.430358	-1.280891	 28.265840	 2.707095	 6.306814	 1.675099	-28.289610	 5.955411	 12.258220	-4.729844	-2.613907	-15.046610	 12.421440	-109.501400	 7.014688	 93.307510	 14.845750	 51.692220	 13.368230	 11.449860	-0.267736	-12.978170	 23.646270	-9.629639	-32.647790	 3.428579	-0.266262	-0.122102	-5.916676	 15.576780	 1.732637	 5.128532	-0.335732	-0.261958	 3.081427	-6.904174	 1.474448	-1.094705	-8.476746	 10.628600	 120.980500	 10.771440	-96.115940	-2.831707	 40.893940	-2.705369	-11.307570	-0.197546	 12.963960	-24.344370	 6.249860	-20.755240	-3.347183	 8.093740	 0.883431	 13.353140	 31.368320	-7.344912	-8.534935	 20.038170	-0.967964
-0.038557	 1.243766	 0.081117	 1.242994	-2.634448	 159.130100	-154.991700	 11.230000	-55.589730	 5.950335	-21.275310	-2.094723	-17.209520	 63.002410	 14.619700	 1.150533	 26.533540	-2.655108	 173.122300	 16.956170	 26.076690	-2.087483	-25.677000	 2.507782	-14.752710	 67.913040	 13.073960	-1.277997	 28.227690	 2.705876	 7.270719	 0.094775	-34.420180	 5.623998	 14.000770	-4.613431	-1.533889	-17.365970	 11.043450	-108.179000	 7.210325	 93.432450	 14.074480	 53.748740	 15.835950	 13.648910	-0.268914	-17.427510	 26.634460	-11.477780	-35.508680	 4.465776	-3.455020	 0.070231	-5.906699	 16.292320	 1.809695	 5.178577	 0.801735	-0.237835	 3.044256	-6.932539	 1.690432	-0.997887	-9.198300	 11.759970	 120.091900	 10.911060	-96.015890	-2.848191	 40.037030	-1.607944	-13.494710	-0.197798	 17.416000	-28.382810	 6.483579	-8.273385	-3.721174	 9.256538	 0.893320	 13.764250	 34.430540	-8.224350	-8.533434	 22.552470	-1.132278
-0.046331	 1.244710	 0.079700	 0.619952	-3.391250	 155.472400	-154.498000	 10.731310	-59.529290	 6.166170	-21.972010	-2.687791	-19.788120	 63.887680	 16.973960	 1.147030	 26.486000	-2.653727	 173.504900	 18.355010	 23.849530	-2.011813	-25.133970	 0.996470	-18.331250	 66.159830	 16.405240	-1.275683	 28.197150	 2.704902	 7.955265	-1.434403	-39.539800	 4.931647	 15.231450	-4.048351	-0.424904	-19.057000	 9.612146	-106.691500	 7.229175	 93.508290	 13.572460	 55.183420	 17.519670	 15.795090	-0.269703	-21.771100	 28.912010	-12.295220	-38.133470	 5.489047	-6.552859	 0.363058	-5.897708	 17.006450	 1.886755	 5.227990	 1.935097	-0.214778	 3.001331	-6.936439	 1.947843	-0.948597	-9.781297	 13.134770	 118.998800	 11.063030	-95.854310	-2.401154	 39.217840	-0.902592	-15.655270	-0.198746	 21.762100	-33.449690	 5.006337	 4.055367	-4.128389	 10.526330	 0.917635	 14.310850	 37.831210	-9.276886	-8.522749	 25.281580	-1.314376
-0.062005	 1.245349	 0.072044	-0.128432	-4.440269	 150.244200	-153.451200	 10.003880	-65.108480	 6.833394	-24.080800	-0.438459	-18.394290	 66.581730	 14.329830	 1.140775	 26.401030	-2.651272	 173.984700	 20.000330	 20.827520	-1.941093	-24.088470	-1.662169	-22.220230	 63.336990	 20.660730	-1.275160	 28.190100	 2.704683	 8.733119	-3.245298	-45.772790	 5.343299	 16.056260	-4.218204	 0.178558	-20.105060	 8.267902	-104.189700	 6.527699	 93.438560	 12.051610	 55.496510	 18.003210	 18.376530	-0.269006	-27.039650	 29.045060	-13.179430	-45.828090	 6.679278	-10.049360	 0.969299	-5.888004	 17.882890	 1.981570	 5.287782	 3.319269	-0.187920	 2.924282	-6.842489	 2.432779	-1.151402	-10.066190	 15.941180	 116.822600	 11.296370	-95.408780	-1.221075	 37.159460	-1.174520	-18.316220	-0.201140	 27.032780	-45.161940	-0.541124	 15.777410	-4.764497	 12.527450	 0.992012	 15.467330	 43.434800	-11.239100	-8.485690	 29.534870	-1.608570
-0.080282	 1.244071	 0.060791	-1.089711	-5.306095	 144.457600	-152.317600	 8.990152	-71.205920	 7.800330	-27.012110	 1.932607	-17.235350	 69.759780	 11.921240	 1.133865	 26.307030	-2.648569	 174.283700	 21.850970	 17.404350	-1.886459	-23.484540	-4.544731	-25.592590	 60.390750	 24.668970	-1.274581	 28.182290	 2.704441	 9.285122	-4.686653	-49.378260	 4.296266	 16.253480	-3.202598	 1.270223	-20.302290	 6.869692	-101.426800	 5.748983	 93.397480	 9.181643	 55.208240	 19.500110	 20.987620	-0.267033	-32.401840	 30.515390	-13.047880	-51.279420	 8.058403	-13.901550	 1.736135	-5.878997	 18.852580	 2.086851	 5.353297	 4.850705	-0.159839	 2.838122	-6.739303	 2.969340	-1.371449	-10.340650	 19.078390	 114.410900	 11.534970	-94.905380	-0.360149	 33.921110	-1.365327	-21.060330	-0.204264	 32.396080	-54.991880	-8.478638	 28.279530	-5.477705	 14.740280	 1.101792	 17.236690	 49.589380	-13.861300	-8.411904	 34.239670	-1.954173
-0.103241	 1.239269	 0.043209	-1.890705	-5.519055	 138.786000	-151.458800	 7.508269	-76.901410	 9.167472	-30.897880	 5.678927	-12.452070	 74.008970	 5.647338	 1.128905	 26.239460	-2.646639	 174.198000	 23.779750	 13.606620	-1.964558	-24.345810	-6.251189	-26.093750	 59.032300	 26.540310	-1.281509	 28.273490	 2.707362	 9.791334	-4.746033	-50.142160	 4.608424	 16.207320	-3.293729	 1.581839	-19.587600	 5.670682	-99.115460	 4.367312	 93.199620	 4.444023	 52.129820	 18.856360	 23.267210	-0.264361	-37.106880	 28.690740	-9.534465	-59.223790	 8.130070	-14.310530	 1.930431	-5.878031	 18.970550	 2.099695	 5.361521	 5.043974	-0.156422	 2.803651	-6.500295	 3.489103	-1.554969	-10.400740	 21.608100	 110.259600	 10.899210	-90.570410	 4.892778	 28.682020	 6.103510	-35.500360	-0.617859	 36.868920	-52.726710	-16.228980	 46.311430	-5.825061	 15.792070	 1.184551	 18.140930	 52.039580	-15.097910	-8.369048	 36.219790	-2.107876
-0.134250	 1.225724	 0.016454	-2.310709	-5.373453	 133.521500	-150.041900	 6.185085	-81.820300	 11.648320	-37.176160	 9.735714	-6.036446	 79.677070	-1.996320	 1.125229	 26.189310	-2.645214	 173.397800	 26.596600	 10.359450	-2.331534	-28.233440	-7.411977	-25.553790	 59.549180	 28.070930	-1.296237	 28.467070	 2.713604	 10.575550	-3.987897	-47.687620	 4.518501	 15.312320	-3.557663	 2.008801	-17.833750	 4.499070	-96.472610	 3.073775	 93.027050	-5.421900	 50.056460	 23.256560	 25.633850	-0.261547	-41.975030	 28.246490	-3.417423	-61.890350	 8.067429	-14.348090	 2.050691	-5.877518	 19.034830	 2.106697	 5.366074	 5.150958	-0.154543	 2.879897	-6.095858	 4.055778	-2.175712	-10.464680	 24.250130	 103.348500	 8.269300	-82.477290	 17.604950	 24.295810	 10.784240	-76.850080	-1.416443	 40.456270	-28.543640	-28.454120	 65.650270	-6.050267	 16.502310	 1.245912	 18.789080	 53.590750	-15.954860	-8.337995	 37.468970	-2.207862
